<svg version="1.1" id="Layer_1" xmlns="http://www.w3.org/2000/svg" xmlns:xlink="http://www.w3.org/1999/xlink" x="0px" y="0px"
	 width="100%" viewBox="0 0 164 150" enable-background="new 0 0 164 150" xml:space="preserve">
<path fill="#FEFEFE" opacity="1.000000" stroke="none" 
	d="
M115.000000,151.000000 
	C76.666672,151.000000 38.833344,151.000000 1.000010,151.000000 
	C1.000007,101.000008 1.000007,51.000023 1.000003,1.000024 
	C55.666653,1.000016 110.333305,1.000016 164.999969,1.000008 
	C164.999969,50.999973 164.999969,100.999947 164.999985,150.999969 
	C148.500000,151.000000 132.000000,151.000000 115.000000,151.000000 
M91.088470,132.751785 
	C97.261642,132.448700 98.964050,131.190781 98.971596,126.235260 
	C99.024628,91.416130 98.986458,56.596867 99.016495,21.777678 
	C99.020279,17.391672 96.817207,15.314755 92.607269,15.268850 
	C86.277260,15.199828 79.945854,15.229696 73.615211,15.257064 
	C69.139534,15.276412 66.963501,17.423752 66.970543,22.046547 
	C67.023323,56.699081 67.021217,91.351768 66.973198,126.004318 
	C66.966766,130.649033 69.224899,132.724838 73.674477,132.744431 
	C79.172150,132.768616 84.669991,132.751221 91.088470,132.751785 
M141.757858,57.534752 
	C141.757477,54.702190 141.817902,51.868031 141.743546,49.037415 
	C141.607224,43.847855 139.898544,42.068474 134.874725,42.011799 
	C128.710495,41.942253 122.543976,42.060749 116.380203,41.973831 
	C111.775352,41.908890 109.714165,44.045403 109.722603,48.638893 
	C109.770020,74.465172 109.772408,100.291634 109.719368,126.117889 
	C109.709755,130.801666 112.049156,132.761444 116.485023,132.757660 
	C121.983543,132.752975 127.482086,132.768906 132.980576,132.754868 
	C140.290710,132.736206 141.749252,131.296646 141.753357,124.006508 
	C141.765625,102.179070 141.757812,80.351624 141.757858,57.534752 
M24.728905,77.583092 
	C24.583059,94.186256 24.329668,110.789696 24.372643,127.392372 
	C24.382467,131.188492 27.226265,132.755493 30.878139,132.755386 
	C37.196121,132.755203 43.514381,132.792267 49.831993,132.744064 
	C54.025879,132.712082 56.282810,130.722214 56.270222,126.317795 
	C56.226490,111.021744 56.234669,95.725456 56.266716,80.429344 
	C56.275742,76.121407 54.290462,73.961258 49.926174,73.985611 
	C43.442120,74.021790 36.947292,73.793159 30.480047,74.125137 
	C28.623285,74.220444 26.845737,75.858971 24.728905,77.583092 
z"/>
<path fill="#010101" opacity="1.000000" stroke="none" 
	d="
M90.628113,132.751801 
	C84.669991,132.751221 79.172150,132.768616 73.674477,132.744431 
	C69.224899,132.724838 66.966766,130.649033 66.973198,126.004318 
	C67.021217,91.351768 67.023323,56.699081 66.970543,22.046547 
	C66.963501,17.423752 69.139534,15.276412 73.615211,15.257064 
	C79.945854,15.229696 86.277260,15.199828 92.607269,15.268850 
	C96.817207,15.314755 99.020279,17.391672 99.016495,21.777678 
	C98.986458,56.596867 99.024628,91.416130 98.971596,126.235260 
	C98.964050,131.190781 97.261642,132.448700 90.628113,132.751801 
z"/>
<path fill="#030303" opacity="1.000000" stroke="none" 
	d="
M141.757858,58.029465 
	C141.757812,80.351624 141.765625,102.179070 141.753357,124.006508 
	C141.749252,131.296646 140.290710,132.736206 132.980576,132.754868 
	C127.482086,132.768906 121.983543,132.752975 116.485023,132.757660 
	C112.049156,132.761444 109.709755,130.801666 109.719368,126.117889 
	C109.772408,100.291634 109.770020,74.465172 109.722603,48.638893 
	C109.714165,44.045403 111.775352,41.908890 116.380203,41.973831 
	C122.543976,42.060749 128.710495,41.942253 134.874725,42.011799 
	C139.898544,42.068474 141.607224,43.847855 141.743546,49.037415 
	C141.817902,51.868031 141.757477,54.702190 141.757858,58.029465 
z"/>
<path fill="#040404" opacity="1.000000" stroke="none" 
	d="
M24.880386,77.186508 
	C26.845737,75.858971 28.623285,74.220444 30.480047,74.125137 
	C36.947292,73.793159 43.442120,74.021790 49.926174,73.985611 
	C54.290462,73.961258 56.275742,76.121407 56.266716,80.429344 
	C56.234669,95.725456 56.226490,111.021744 56.270222,126.317795 
	C56.282810,130.722214 54.025879,132.712082 49.831993,132.744064 
	C43.514381,132.792267 37.196121,132.755203 30.878139,132.755386 
	C27.226265,132.755493 24.382467,131.188492 24.372643,127.392372 
	C24.329668,110.789696 24.583059,94.186256 24.880386,77.186508 
z"/>
</svg>